<?xml version="1.0" encoding="UTF-8" standalone="no"?>
<!-- Created with Inkscape (http://www.inkscape.org/) -->

<svg
   width="377.29584mm"
   height="187.325mm"
   viewBox="0 0 377.29582 187.325"
   version="1.1"
   id="svg1"
   xml:space="preserve"
   inkscape:version="1.4.2 (f4327f4, 2025-05-13)"
   sodipodi:docname="aitu.svg"
   xmlns:inkscape="http://www.inkscape.org/namespaces/inkscape"
   xmlns:sodipodi="http://sodipodi.sourceforge.net/DTD/sodipodi-0.dtd"
   xmlns="http://www.w3.org/2000/svg"
   xmlns:svg="http://www.w3.org/2000/svg"><sodipodi:namedview
     id="namedview1"
     pagecolor="#ffffff"
     bordercolor="#000000"
     borderopacity="0.25"
     inkscape:showpageshadow="2"
     inkscape:pageopacity="0.0"
     inkscape:pagecheckerboard="0"
     inkscape:deskcolor="#d1d1d1"
     inkscape:document-units="mm"
     inkscape:zoom="0.53606888"
     inkscape:cx="591.34192"
     inkscape:cy="325.51787"
     inkscape:window-width="1920"
     inkscape:window-height="1111"
     inkscape:window-x="-9"
     inkscape:window-y="-9"
     inkscape:window-maximized="1"
     inkscape:current-layer="layer1" /><defs
     id="defs1"><clipPath
       clipPathUnits="userSpaceOnUse"
       id="clipPath9250"><g
         inkscape:label="Clip"
         id="use9250" /></clipPath></defs><g
     inkscape:label="Layer 1"
     inkscape:groupmode="layer"
     id="layer1"
     transform="translate(39.451359,-33.144562)"><path
       d="m 51.859545,39.103115 c -7.16809,0.958321 -8.37062,1.360223 -8.76458,2.929731 -0.24527,0.976842 0.70802,4.565386 1.44595,5.443009 0.75141,0.893762 1.09405,0.907256 5.39458,0.20902 1.78594,-0.289983 4.67572,-0.642408 6.42197,-0.782902 3.06546,-0.246856 3.20014,-0.283633 3.90261,-1.064683 0.67362,-0.748771 0.7276,-0.975783 0.7276,-3.066521 0,-2.3495 -0.3855,-3.606006 -1.20253,-3.919537 -0.69797,-0.267759 -5.08027,-0.128588 -7.9256,0.251883 m 3.57188,13.612548 c -2.51883,0.248973 -6.60188,0.960173 -7.52184,1.309952 -0.4154,0.157956 -0.85963,0.636323 -1.0795,1.162314 -0.33761,0.808567 -0.31353,1.11813 0.25083,3.23215 0.87815,3.287977 1.37345,3.61024 4.66381,3.033713 2.43125,-0.426244 3.20939,-0.526521 5.53693,-0.713581 1.97406,-0.15875 2.33574,-0.269346 2.97656,-0.910167 0.6821,-0.68236 0.72946,-0.875771 0.72946,-2.986352 0,-2.556669 -0.31221,-3.479006 -1.36128,-4.021402 -0.7792,-0.40296 -1.11469,-0.411427 -4.19497,-0.106627 m -0.66146,14.460008 c -4.56485,0.594254 -5.12551,1.282171 -4.08252,5.009885 0.91731,3.278982 1.21788,3.469217 4.80007,3.041915 5.24378,-0.625475 5.50016,-0.842963 5.50016,-4.665398 0,-2.170112 -0.0381,-2.32066 -0.77338,-3.055937 -0.8882,-0.888207 -1.07341,-0.899319 -5.44433,-0.330465 m 1.61687,14.094619 c -1.43192,0.198437 -2.54291,1.167606 -2.54291,2.217737 0,0.909373 0.92922,4.042833 1.42214,4.794779 0.40481,0.618067 0.59981,0.674952 2.30848,0.674952 1.71001,0 1.9312,-0.06482 2.63975,-0.773377 0.74031,-0.740304 0.77338,-0.875506 0.77338,-3.154627 0,-2.175933 -0.059,-2.451629 -0.68501,-3.195373 -0.7366,-0.875506 -1.19433,-0.941387 -3.91583,-0.564091 m -16.87962,6.447102 c -1.79811,1.227931 -2.44264,2.163233 -2.18837,3.176058 0.23971,0.95462 3.17077,4.064 3.97616,4.21799 0.73369,0.14023 2.71806,-0.7665 3.72903,-1.70392 1.00939,-0.93583 0.98505,-1.63936 -0.13943,-4.038864 -1.51897,-3.24141 -2.5744,-3.565525 -5.37739,-1.651264 m -57.269973,9.563428 c -0.666221,0.46672 -0.931068,1.11099 -1.798108,4.37622 -1.144587,4.30874 -1.736725,7.65069 -1.736725,9.79937 0,2.72785 0.329142,3.01916 3.709987,3.28374 3.679032,0.28787 3.592513,0.39318 4.761971,-5.80707 0.329142,-1.74625 0.951177,-4.41643 1.381919,-5.93355 0.7366,-2.59503 0.75909,-2.80908 0.375973,-3.612355 -0.338931,-0.71094 -0.763323,-0.991405 -2.531798,-1.673235 -2.353469,-0.90752 -3.339306,-1.01018 -4.163219,-0.43312 m 44.134202,4.43489 c -0.702998,0.34978 -2.425436,3.56659 -2.425436,4.52993 0,1.13665 0.874978,1.85341 3.279775,2.68658 2.132542,0.73898 2.335213,0.76518 3.009107,0.38868 0.81571,-0.45562 2.162175,-2.71622 2.1717,-3.6457 0.0098,-0.98213 -0.405607,-1.50601 -2.224617,-2.80405 -1.863196,-1.32927 -2.855912,-1.63037 -3.810529,-1.15544 m -31.240148,0.67046 c -0.567531,0.56726 -0.8821197,1.37054 -1.4250447,3.63802 -0.994305,4.15263 -1.56845,7.46918 -1.390121,8.03063 0.355864,1.12157 1.312862,1.62613 3.6187057,1.90817 3.34406898,0.40905 4.14337498,-0.10107 4.58787498,-2.92814 0.102923,-0.65484 0.53366402,-2.66197 0.95726202,-4.46034 0.423598,-1.79811 0.770202,-3.48827 0.770202,-3.7555 0,-0.87789 -1.153848,-1.84732 -2.98846802,-2.5109 -2.35902498,-0.85328 -3.21548198,-0.83714 -4.13041098,0.0781 m 13.484166,4.77229 c -0.585258,0.58525 -0.882385,1.3536 -1.434835,3.70919 -0.874713,3.73036 -0.886884,4.64688 -0.07223,5.46153 0.598752,0.59875 2.6162,1.01388 4.977077,1.0242 1.092465,0.005 2.020888,-0.75353 2.289704,-1.87034 1.661319,-6.90377 1.612636,-7.11517 -1.934633,-8.37459 -2.445014,-0.86783 -2.913327,-0.86175 -3.825081,0.05 m 0.796131,22.81022 c -1.41261,0.15981 -1.81266,0.32015 -2.347383,0.94192 -0.569648,0.66225 -0.626798,0.92049 -0.490538,2.21853 0.249503,2.37675 1.388269,6.37223 1.986757,6.97071 0.737129,0.73713 1.90791,0.69454 4.107127,-0.14975 3.146689,-1.20756 3.252787,-1.51395 2.17117,-6.2693 -0.909108,-3.99574 -1.194593,-4.191 -5.427133,-3.71211 m -14.701573,1.29862 c -1.3446117,0.22198 -1.6300967,0.40587 -2.1306887,1.37398 -0.367242,0.71041 -0.366183,1.02658 0.01244,3.22051 0.874448,5.0673 1.772709,8.2079 2.5799517,9.02229 0.654844,0.66014 0.903023,0.74374 1.882246,0.63341 0.620448,-0.0701 1.95421298,-0.53128 2.96386298,-1.02526 C 2.338494,143.3572 2.539577,142.8955 1.879707,140.22083 c -0.26035,-1.05516 -0.754328,-3.27422 -1.09802102,-4.93157 -0.797984,-3.85101 -1.140354,-4.2762 -3.40571698,-4.22963 -0.884237,0.0183 -2.083858,0.11165 -2.665942,0.2077 m 89.206968,20.00787 c -2.14683,1.63909 -2.21218,2.17487 -0.59558,4.87653 1.81161,3.02737 2.68949,3.27978 5.13795,1.47717 2.84003,-2.09047 2.89507,-2.9419 0.35507,-5.48163 -2.21404,-2.2143 -2.96466,-2.34792 -4.89744,-0.87207 m -44.30368,2.43893 c -2.73077,2.90539 -2.72019,4.06559 0.054,5.87295 1.67058,1.0885 2.66594,1.30414 3.63246,0.78688 0.50324,-0.26935 2.60668,-4.40823 2.60668,-5.12922 0,-1.05568 -2.62546,-3.05197 -4.01373,-3.05197 -0.69188,0 -1.11469,0.28231 -2.27938,1.52136 m 52.66531,8.65822 c -3.76502,2.89111 -3.80894,3.04509 -1.8116,6.35688 1.13294,1.87881 1.57003,2.24923 2.65191,2.2479 0.99828,-10e-4 2.00528,-0.6014 4.97761,-2.96677 3.285865,-2.61488 3.370005,-3.50282 0.58923,-6.22644 -2.36776,-2.31934 -2.6551,-2.29288 -6.40715,0.58843 m -81.569721,-0.17303 c -0.862012,0.38311 -3.915568,2.72309 -4.066381,3.11626 -0.437621,1.14009 -0.12991,1.94125 1.528763,3.98251 2.438135,3.00037 6.321425,6.70718 7.026804,6.70718 0.919956,0 1.438804,-0.39211 3.162829,-2.39024 2.2352,-2.59054 2.210329,-2.84374 -0.566473,-5.79014 -1.200415,-1.27397 -2.897452,-3.10965 -3.770577,-4.07935 -1.589087,-1.76451 -2.191279,-2.04523 -3.314965,-1.54622 m 57.345261,9.95336 c -2.81173,0.43312 -3.107,0.76041 -3.37926,3.74729 -0.21457,2.35453 -0.11165,2.88396 0.75327,3.87562 0.48869,0.55985 2.23097,0.58869 5.72029,0.0944 2.01877,-0.28601 2.44422,-0.43682 2.97657,-1.05568 0.7575,-0.88054 0.77496,-1.6055 0.0966,-4.0005 -0.87313,-3.08293 -1.54543,-3.37291 -6.16744,-2.66118 m 49.684255,3.55229 c -1.68539,0.76571 -2.88422,2.35215 -3.42609,4.53364 -0.19526,0.78528 -2.60958,2.8575 -6.78391,5.82295 -1.65921,1.17872 -3.22527,2.38786 -3.4798,2.68711 -0.74163,0.8718 -0.55351,1.94098 0.73369,4.17274 1.25756,2.18043 2.16455,2.8739 3.36232,2.57122 1.34858,-0.34078 9.08473,-5.88566 10.90242,-7.81473 0.4408,-0.46779 1.04564,-0.82471 1.39753,-0.82471 1.68751,0 3.99124,-1.69201 4.86331,-3.57187 2.10529,-4.53734 -3.00329,-9.65068 -7.56947,-7.57635 m -28.561775,5.06148 c -1.30386,0.58394 -3.48086,1.49172 -4.8379,2.01745 -3.28348,1.27238 -3.49383,1.63354 -2.72706,4.68021 0.76094,3.02313 1.16231,3.49436 2.95698,3.47345 1.09352,-0.0127 2.27806,-0.36406 5.1263,-1.52029 4.29736,-1.74467 5.70627,-2.63049 6.04097,-3.79783 0.20187,-0.70353 0.0915,-1.08188 -0.76121,-2.60615 -1.99363,-3.56499 -2.4548,-3.74385 -5.79808,-2.24684 m -75.348303,4.16983 c -0.398463,0.254 -1.321329,1.21365 -2.050521,2.13281 -1.346994,1.69836 -1.632479,2.68526 -1.076589,3.72375 0.343164,0.64108 5.366014,4.13226 9.170193,6.37381 4.504002,2.65403 5.393531,2.56434 6.878108,-0.69374 1.001448,-2.19763 1.131359,-3.46842 0.437621,-4.28625 -0.254529,-0.3003 -1.487752,-1.13162 -2.740025,-1.84732 -2.233612,-1.27661 -4.38097,-2.65192 -7.482152,-4.79266 -1.742281,-1.20253 -2.097881,-1.27185 -3.136635,-0.6104 m 34.540823,0.96309 c -0.64902,0.54583 -0.91837,1.11998 -1.36948,2.91915 -0.98769,3.93752 -0.48207,4.36906 6.22062,5.30992 1.55786,0.21881 3.65072,0.39767 4.65111,0.39767 1.62666,0 1.88701,-0.0738 2.4675,-0.70009 0.60113,-0.64876 0.64876,-0.89958 0.64876,-3.42027 0,-2.59001 -0.0318,-2.74558 -0.66463,-3.24326 -0.41011,-0.32253 -1.2962,-0.59161 -2.31511,-0.70247 -1.95606,-0.21325 -6.8662,-0.88186 -8.01899,-1.0922 -0.62415,-0.11377 -0.99933,0.009 -1.61978,0.53155"
       stroke="none"
       fill="#fffcfc"
       fill-rule="evenodd"
       id="path1"
       style="display:inline;stroke-width:0.264583;fill:#2c8dbb;fill-opacity:1"
       sodipodi:nodetypes="cccsccscccscccccscccccssccscsssccccccccccscccccccsccccccsccccsccccsccccccssccccccccccccccccccccsssccccscccccssccccccscccccscssssccccccccccccscccccccccscssccc" /><path
       d="m 146.78015,91.38134 c -1.06548,0.1225 -2.21483,0.48975 -3.23559,1.03373 -2.57519,1.37266 -3.78487,3.40836 -3.77058,6.345505 0.0185,3.823495 1.74572,5.669235 6.68073,7.138995 2.72441,0.81121 3.64093,1.40467 3.8444,2.48893 0.54239,2.8919 -2.76755,3.84546 -6.44764,1.85764 -2.38892,-1.29011 -2.84691,-1.18057 -4.14072,0.9914 l -0.98214,1.64888 0.6186,0.50932 c 1.0668,0.87842 4.25556,2.26695 5.91026,2.57387 4.16428,0.77258 8.11583,-0.97605 9.84753,-4.35742 0.94615,-1.84785 1.00885,-5.02629 0.13202,-6.69793 -0.92207,-1.75736 -3.05355,-3.08028 -6.67226,-4.14152 -0.80036,-0.23469 -1.84203,-0.66569 -2.3151,-0.957535 -0.73501,-0.45376 -0.8599,-0.68236 -0.8599,-1.574015 0,-2.23731 2.61514,-2.84215 5.79173,-1.33958 1.58512,0.75009 1.72985,0.7739 2.32357,0.38497 0.34819,-0.22807 0.948,-1.05675 1.33271,-1.84097 0.60113,-1.22582 0.64876,-1.48749 0.33866,-1.86108 -0.52863,-0.63686 -2.57995,-1.60206 -4.09813,-1.92802 -2.08677,-0.447941 -2.54079,-0.477046 -4.29815,-0.27517 m -24.6761,4.52173 c -0.91017,2.36485 -2.29817,5.96636 -3.08425,8.00366 -0.78634,2.03729 -2.06878,5.37104 -2.84983,7.40833 -0.78105,2.03729 -1.50389,3.91266 -1.60655,4.16719 -0.16986,0.42148 0.036,0.46275 2.28918,0.45905 3.59516,-0.006 3.59489,-0.006 5.09005,-4.22937 l 0.42148,-1.19062 4.41907,0.0529 4.41934,0.0526 0.72813,2.06401 c 1.04193,2.95275 1.46923,3.25438 4.61037,3.25438 1.37424,0 2.49872,-0.0995 2.49872,-0.22119 0,-0.12171 -0.52784,-1.58036 -1.1729,-3.24115 -0.64505,-1.66105 -2.61408,-6.77042 -4.37568,-11.35433 -1.76159,-4.58391 -3.31496,-8.60214 -3.45175,-8.9297 -0.23733,-0.56806 -0.38708,-0.59531 -3.26443,-0.59531 h -3.01572 l -1.65523,4.29948 m 34.92738,-1.91823 v 2.38125 h 3.30412 3.30385 l 0.0696,9.72345 0.0693,9.72344 2.97657,0.0749 2.97656,0.0749 v -9.79831 -9.79833 h 3.30729 3.30729 v -2.38125 -2.38125 h -9.65729 -9.65729 v 2.38125 m 25.00894,0.32279 c -0.55827,1.49596 -1.57559,4.14867 -2.2606,5.89493 -0.685,1.74625 -1.93198,4.96094 -2.77071,7.14375 -1.28297,3.33798 -2.6297,6.78497 -3.24062,8.29336 -0.11668,0.28814 0.39079,0.33867 2.66515,0.26459 3.38217,-0.1098 3.51023,-0.20267 4.51114,-3.26628 l 0.69163,-2.11667 4.48071,0.0781 4.48099,0.078 0.69982,2.10185 c 0.96467,2.8964 1.35043,3.16601 4.53073,3.16601 1.5113,0 2.47782,-0.10557 2.47782,-0.27041 0,-0.14869 -0.54028,-1.66687 -1.20042,-3.37343 -0.6604,-1.70657 -1.72852,-4.47226 -2.37384,-6.14575 -0.64532,-1.67348 -2.1635,-5.60255 -3.37344,-8.73126 l -2.20027,-5.68854 -3.05144,-0.0741 -3.05144,-0.0741 -1.01521,2.71991 m 17.85356,9.47633 v 12.18036 l 2.57969,-0.0757 2.57968,-0.0757 0.0704,-7.37262 0.0704,-7.37261 1.64941,2.11772 c 4.78261,6.14019 9.18978,11.63003 9.71233,12.09834 0.48154,0.43153 0.96388,0.52917 2.61382,0.52917 h 2.02327 V 103.77431 91.73576 l -2.57546,-0.0757 -2.57545,-0.0757 -0.0704,7.316265 -0.0704,7.316525 -1.22026,-1.55231 c -0.67125,-0.85354 -3.09033,-3.93329 -5.3758,-6.84372 -2.28521,-2.91042 -4.39844,-5.49989 -4.69583,-5.75469 -0.41592,-0.35613 -1.02235,-0.46302 -2.6281,-0.46302 h -2.0873 v 12.18037 m 28.85625,-3.65204 c -1.80975,4.69556 -3.9079,10.08512 -4.66249,11.97689 -0.75432,1.89177 -1.32027,3.52875 -1.25783,3.63802 0.16881,0.29395 4.43468,0.24077 5.23928,-0.0651 0.68157,-0.25902 0.83635,-0.5334 2.13889,-3.78962 l 0.50986,-1.27503 4.36562,-0.002 4.36563,-0.002 0.73845,2.07063 c 1.06256,2.97868 1.24301,3.10991 4.4278,3.21971 1.76239,0.0606 2.63895,-0.004 2.63895,-0.19367 0,-0.2495 -1.93622,-5.34723 -7.5983,-20.00569 l -1.53326,-3.96875 -3.04086,-0.0706 -3.04112,-0.0704 -3.29062,8.53706 m 26.70625,3.64251 v 12.17084 h 2.91041 2.91042 V 103.7737 91.60286 h -2.91042 -2.91041 v 12.17084 m 8.25791,-9.85573 0.0765,2.3151 3.37344,0.0741 3.37344,0.0741 v 9.78165 9.78165 h 2.91041 2.91042 v -9.78165 -9.78165 l 3.37344,-0.0741 3.37344,-0.0741 0.0765,-2.3151 0.0765,-2.31511 h -9.81022 -9.81022 l 0.0765,2.31511 m -137.98629,6.50611 c -0.55484,1.62401 -1.22688,3.63723 -1.49358,4.4741 l -0.48498,1.52136 h 3.01493 c 1.65814,0 3.01493,-0.0328 3.01493,-0.073 0,-0.15928 -2.87682,-8.71274 -2.95699,-8.79132 -0.0471,-0.0463 -0.53975,1.244605 -1.09431,2.86889 m 107.8312,1.34276 c -0.76571,2.34077 -1.39065,4.34499 -1.38907,4.45426 0.003,0.10927 1.3126,0.19844 2.91333,0.19844 1.60073,0 2.91042,-0.10901 2.91042,-0.2421 0,-0.29368 -2.6334,-7.97375 -2.87311,-8.37936 -0.0931,-0.15796 -0.79613,1.627985 -1.56157,3.96876 m -48.96221,0.0958 c -0.76676,2.28785 -1.38906,4.24921 -1.38297,4.35848 0.0156,0.27967 5.83194,0.24897 5.83194,-0.0307 0,-0.37915 -2.66515,-8.08991 -2.86755,-8.29655 -0.10319,-0.1053 -0.81492,1.680635 -1.58142,3.96876 m 59.50644,29.31467 c -3.45758,1.26471 -5.31892,3.79571 -5.31284,7.22471 0.003,1.89098 0.89694,3.87879 2.24288,4.98793 0.64029,0.52811 2.07936,1.17395 4.06902,1.82642 3.54039,1.16125 4.26879,1.70973 4.26879,3.21442 0,1.42584 -0.8763,2.20953 -2.66224,2.38125 -1.21152,0.11642 -1.59411,0.008 -3.57637,-1.01097 -2.65033,-1.36261 -2.97206,-1.28879 -4.35795,0.99774 l -0.89244,1.47241 1.02103,0.88265 c 1.8108,1.56527 5.66049,2.66409 8.3513,2.38363 2.44422,-0.2548 3.9669,-0.92657 5.44116,-2.4011 1.60893,-1.60893 2.23414,-3.20622 2.22594,-5.68669 -0.0119,-3.60177 -1.62692,-5.32182 -6.47647,-6.89821 -2.72733,-0.88662 -3.80259,-1.49305 -3.99309,-2.25214 -0.65167,-2.59635 2.22594,-3.57002 5.75019,-1.94574 1.66846,0.76914 1.84282,0.8001 2.40215,0.42465 0.33179,-0.22277 0.94747,-1.07632 1.36842,-1.89732 0.89615,-1.74837 0.92499,-1.7018 -1.9169,-3.08769 -1.43722,-0.70088 -2.05052,-0.83582 -4.23334,-0.93107 -1.91373,-0.0836 -2.84427,-0.005 -3.71924,0.31512 m -128.82588,8.64662 0.0823,8.7974 0.72893,1.48405 c 1.52665,3.10885 4.55401,5.07735 8.33967,5.42263 4.85881,0.44318 8.85137,-1.66952 10.73388,-5.68034 l 0.82391,-1.75551 0.0939,-8.53281 0.0939,-8.53281 h -3.06494 -3.06493 l -0.004,8.13594 c -0.004,7.93062 -0.0193,8.16213 -0.59532,9.16939 -0.84269,1.47347 -1.78249,2.07778 -3.4245,2.2024 -1.96612,0.14896 -3.56552,-0.69136 -4.37647,-2.29976 -0.57838,-1.14671 -0.59531,-1.40997 -0.59531,-9.19427 v -8.0137 h -2.92656 -2.92656 l 0.0823,8.79739 m 24.82083,3.38297 v 12.18035 l 2.57968,-0.0757 2.57969,-0.0757 v -7.32922 c 0,-4.03093 0.0754,-7.24561 0.16748,-7.14375 0.14314,0.15849 5.47185,6.89716 9.82821,12.4288 0.71888,0.91281 1.52453,1.77615 1.78991,1.91823 0.26564,0.14208 1.32398,0.25823 2.35215,0.25823 h 1.86954 V 143.19733 131.0265 h -2.50851 c -2.38575,0 -2.51593,0.0294 -2.6588,0.59928 -0.0828,0.32967 -0.11483,3.6576 -0.0712,7.39563 0.0434,3.73804 0.004,6.71275 -0.0873,6.61062 -0.0915,-0.10213 -2.22117,-2.80512 -4.7326,-6.00657 -2.51116,-3.20146 -5.09481,-6.44605 -5.74093,-7.2099 l -1.17501,-1.38906 h -2.09603 -2.09629 v 12.18036 m 25.52117,-11.84963 c -0.0699,0.18203 -0.0958,5.62901 -0.0579,12.10468 l 0.0691,11.77396 2.97656,0.0749 2.97656,0.0749 v -12.17959 -12.17956 h -2.91862 c -2.091,0 -2.95486,0.0939 -3.04562,0.33073 m 7.55174,-0.1278 c 0,0.11166 1.50178,3.95156 3.33719,8.53282 1.83542,4.58152 3.98992,9.97108 4.7879,11.97689 l 1.45098,3.64702 2.67335,-0.0752 2.67308,-0.0751 4.8133,-12.03854 4.8133,-12.03854 -2.64901,-0.0757 c -1.9685,-0.0564 -2.79902,0.0225 -3.23294,0.30692 -0.38074,0.24923 -0.93107,1.33508 -1.58089,3.11837 -2.05158,5.63087 -3.67559,10.19996 -4.24285,11.93721 l -0.58553,1.79335 -1.08188,-3.11627 c -2.93238,-8.44682 -4.65746,-12.96088 -5.15911,-13.50089 -0.50456,-0.54319 -0.7919,-0.59531 -3.2848,-0.59531 -1.50257,0 -2.73209,0.0913 -2.73209,0.20293 m 26.10565,-0.0265 c -0.0971,0.0968 -0.17648,5.57372 -0.17648,12.17084 v 11.99435 h 7.94782 7.94782 l -0.0765,-2.3151 -0.0765,-2.3151 -4.82865,-0.0722 -4.82865,-0.072 v -2.64001 -2.63975 h 3.70417 3.70417 v -2.24896 -2.24896 h -3.70417 -3.70417 v -2.64583 -2.64584 h 4.8948 4.89479 v -2.24895 -2.24896 h -7.76103 c -4.26878,0 -7.84066,0.0794 -7.93749,0.17647 m 18.87352,11.99436 v 12.17083 h 2.91041 2.91042 v -4.49791 -4.49792 h 0.87551 c 0.48154,0 1.06971,0.14896 1.3073,0.33073 0.23733,0.18203 1.33932,1.93807 2.44846,3.9026 2.74187,4.85643 2.6162,4.7625 6.36376,4.7625 1.66528,0 3.02789,-0.0693 3.02789,-0.15372 0,-0.45561 -5.69251,-9.42552 -6.1304,-9.65994 -0.47545,-0.25453 -0.41486,-0.3466 0.72655,-1.10251 4.52199,-2.99535 4.2881,-9.86658 -0.41699,-12.24598 -1.9177,-0.9697 -3.43931,-1.17316 -8.79739,-1.17634 l -5.22552,-0.003 v 12.17083 m 39.80868,-11.8401 c -0.0699,0.18203 -0.0958,5.62901 -0.058,12.10468 l 0.0691,11.77396 2.97656,0.0749 2.97656,0.0749 v -12.1797 -12.17956 h -2.91861 c -2.09101,0 -2.95487,0.0939 -3.04562,0.33073 m 8.40131,1.98437 0.0765,2.31511 3.23797,0.0743 3.2377,0.0741 0.0696,9.7155 0.0693,9.71523 2.97656,0.0749 2.97656,0.0749 v -9.79832 -9.79831 h 3.29618 3.29618 l 0.0773,-1.99284 0.0773,-1.99311 2.75775,4.70509 c 1.51686,2.58762 3.39222,5.78167 4.16719,7.09771 l 1.40943,2.39262 v 4.68498 4.68471 h 3.04271 3.04271 v -4.77811 -4.77811 l 2.61435,-4.41616 c 4.37806,-7.3951 5.58773,-9.55331 5.58773,-9.97003 0,-0.3294 -0.4654,-0.39925 -2.66329,-0.39925 -1.46474,0 -2.89798,0.12567 -3.18479,0.27913 -0.47519,0.25427 -5.26442,9.70413 -5.26442,10.38702 0,0.15266 -1.13691,-2.02698 -2.5265,-4.84373 -1.38959,-2.81676 -2.72892,-5.27553 -2.97657,-5.46365 -0.35295,-0.26802 -3.15039,-0.34369 -12.96193,-0.35031 l -12.51188,-0.008 0.0765,2.3151 m -42.38997,5.66029 v 3.47795 l 1.83224,-0.15346 c 3.00434,-0.25188 4.2545,-1.29513 4.25212,-3.54806 -0.003,-2.25002 -1.40467,-3.24988 -4.563,-3.25279 l -1.52136,-0.002 v 3.47795"
       stroke="none"
       fill="#fffcfc"
       fill-rule="evenodd"
       id="path9251"
       style="display:inline;stroke-width:0.264583;fill:#3c3325;fill-opacity:1"
       sodipodi:nodetypes="ccccccccscccscscscsccccsccsccccsscscsccccccccccccccccccccscsccccccsscsccccccccccccssccccccccccsccccccccccccsccccccccccccccccccccccccccccccccccssccccsscccssscccccsccscsscscccscscccccsccccccccccsccccccccscscscccsccccscccccccccccsccccccccccccscsssccscccccccccccccccccccccscccccccscssssccccccccccccscccccccccccccccccccccccccsssssccccccccccc" /><path
       d="m 65.546185,38.863932 c -0.73158,0.294481 -1.11893,1.646502 -1.11893,3.906837 0,2.090738 0.054,2.31775 0.72761,3.066521 0.69876,0.776817 0.84825,0.818621 3.77031,1.055158 9.70571,0.785284 18.79891,3.307027 27.64896,7.66789 6.308195,3.108325 10.424055,5.796491 16.082435,10.503693 3.09404,2.573867 3.34698,2.573602 5.92482,-0.0042 2.81728,-2.817019 2.71859,-3.404129 -1.1176,-6.638396 C 105.19453,48.076988 90.000295,41.330378 74.234305,39.22694 c -3.77164,-0.503237 -7.90998,-0.67601 -8.68812,-0.363008 M 21.432467,49.083727 c -6.802173,3.693319 -12.543102,8.066352 -18.80579,14.324542 -7.293239,7.288212 -12.4028717,14.422966 -16.672453,23.280952 -2.038615,4.2291 -2.231496,5.027609 -1.453621,6.016359 0.63791,0.81095 3.926681,2.17355 5.253831,2.17673 1.2091463,0.003 1.7414873,-0.63474 3.1982833,-3.829846 6.32010168,-13.863637 17.5228247,-26.141097 30.9932907,-33.966678 1.67349,-0.972079 3.191669,-1.960563 3.373438,-2.196307 0.569119,-0.737658 0.368829,-2.247635 -0.553773,-4.17142 -1.483519,-3.094302 -2.225675,-3.321579 -5.333206,-1.634332 m 43.897018,3.975894 c -0.7411,0.637117 -0.77337,0.761736 -0.86069,3.326871 -0.0897,2.630487 -0.0812,2.674408 0.66146,3.405452 0.69268,0.681831 1.01415,0.767292 4.0595,1.077383 12.42378,1.264709 24.91582,6.610615 34.434735,14.735704 2.08968,1.783557 2.72045,1.691482 5.16731,-0.75565 3.02736,-3.027098 2.8067,-3.551237 -3.45757,-8.212137 C 94.234685,58.378275 81.923885,53.71129 68.239905,52.575434 c -2.02883,-0.16854 -2.18043,-0.143404 -2.91042,0.484187 M 27.468142,61.691652 C 18.332873,66.67164 9.360323,75.157621 2.975134,84.856717 0.42243398,88.734185 -2.776908,95.06884 -2.776908,96.24544 c 0,1.22582 0.928688,1.98755 3.50255398,2.872855 2.21085902,0.76067 2.24049202,0.76332 3.05487902,0.28231 0.555096,-0.32809 1.054894,-1.007545 1.537759,-2.091005 0.99986,-2.24208 3.087952,-5.93646 4.945062,-8.748717 4.803775,-7.273925 12.209198,-14.365287 19.663833,-18.829866 2.94349,-1.762919 3.808413,-2.545292 3.808413,-3.444081 0,-0.348192 -0.436563,-1.58803 -0.970227,-2.755371 -0.970492,-2.123546 -1.747044,-2.889779 -2.919148,-2.880519 -0.261938,0.0021 -1.332177,0.470429 -2.378075,1.040606 m 37.732493,5.814484 c -0.74163,0.741627 -0.77338,0.872331 -0.77338,3.18426 0,2.728912 0.31936,3.498056 1.64439,3.960019 0.44873,0.156368 1.2446,0.287337 1.76847,0.290512 1.25122,0.0082 6.90219,1.1303 9.05008,1.79705 5.64515,1.7526 10.67329,4.355835 15.50511,8.027988 3.57955,2.720181 3.75602,2.724149 6.34233,0.137583 2.658005,-2.658004 2.609055,-3.292211 -0.44371,-5.749396 -4.68868,-3.774017 -10.43173,-6.991879 -16.22795,-9.092935 -4.16931,-1.5113 -6.67306,-2.132806 -11.28872,-2.802202 -4.60666,-0.668073 -4.66407,-0.665427 -5.57662,0.247121 m -31.874089,7.244027 c -5.0292,3.11097 -8.958527,6.402916 -13.15429,11.020954 -3.481652,3.832489 -7.72742,10.322193 -9.204854,14.069748 -0.460639,1.169465 -0.47572,1.398865 -0.143668,2.193665 0.320939,0.76835 0.658018,0.99854 2.50481,1.7108 3.617383,1.39515 3.850481,1.2782 6.210035,-3.11811 4.205288,-7.83406 9.731904,-13.715485 17.764656,-18.903964 2.8321,-1.829329 2.94587,-2.224881 1.51685,-5.274733 -1.53775,-3.281098 -2.46935,-3.569229 -5.493539,-1.69836 M 65.124695,81.7177 c -0.65854,0.658548 -0.69744,0.842433 -0.69744,3.283744 0,2.563283 0.007,2.592387 0.81413,3.271308 0.4953,0.416719 1.14273,0.687123 1.65364,0.690827 1.47558,0.01005 5.3168,0.982133 8.28172,2.096029 2.86359,1.075532 6.15633,2.896922 8.72146,4.823882 1.98517,1.49119 2.65483,1.40494 4.75642,-0.61277 1.82827,-1.75578 2.28653,-2.83687 1.68275,-3.97008 -0.4064,-0.76279 -0.50483,-0.841901 -3.92139,-3.157005 -4.97417,-3.370527 -10.7397,-5.68616 -16.67748,-6.698191 -3.3618,-0.573088 -3.79386,-0.547688 -4.61381,0.272256 m -6.78285,20.86006 c -8.35343,1.86849 -14.81164,8.36534 -16.51556,16.61425 -2.17779,10.54312 4.07432,21.17725 14.39889,24.49116 6.7691,2.17275 14.11975,0.78845 19.7956,-3.72772 3.26019,-2.59424 6.13304,-7.06887 7.21492,-11.23765 0.76517,-2.94878 0.76147,-7.71842 -0.008,-10.55264 -1.98384,-7.30276 -7.41283,-12.90479 -14.69893,-15.16777 -2.44554,-0.75935 -7.69963,-0.97604 -10.18645,-0.41963 m -34.326249,26.05219 c -3.31179,0.31327 -3.747294,1.20968 -2.703777,5.5634 0.971814,4.05421 3.199341,9.0752 5.696744,12.84049 1.697302,2.55905 5.484812,6.79662 6.341004,7.09427 0.89191,0.31009 1.671637,-0.20584 3.393278,-2.24605 2.07037,-2.45348 2.03967,-2.77627 -0.55377,-5.79384 -2.400035,-2.79241 -4.249738,-5.68272 -5.405173,-8.44709 -0.796396,-1.90553 -2.339975,-6.87149 -2.339975,-7.52872 0,-0.48577 -1.112044,-1.41393 -1.852083,-1.54569 -0.363802,-0.0648 -1.522942,-0.0362 -2.576248,0.0632 m -43.372559,3.96584 c -1.768475,0.28893 -1.941248,0.56462 -1.941248,3.09774 0,2.34712 0.733954,6.24682 2.113756,11.23209 3.7973,13.71812 12.0507133,27.55742 22.43164,37.61291 1.738577,1.68407 2.267214,2.05052 2.958306,2.05052 1.228196,0 1.6764,-0.32676 3.306762,-2.41036 2.141802,-2.73738 2.141273,-2.7387 -1.808427,-6.84979 -5.876925,-6.11691 -9.872662,-11.66707 -13.4310427,-18.65578 -3.92139,-7.70149 -6.1100233,-14.36634 -7.6451363,-23.28095 -0.448998,-2.60694 -0.913871,-3.05197 -3.14325,-3.00963 -0.956998,0.0182 -2.235729,0.1143 -2.84136,0.21325 m 32.983752,10.67765 c -1.947598,0.7358 -2.318015,0.97869 -2.764632,1.81266 l -0.515673,0.96308 1.39118,2.86094 c 4.459287,9.17204 12.289631,17.73184 21.293401,23.27778 2.3114,1.42372 3.53721,1.63565 4.40002,0.76147 0.59399,-0.60193 2.38945,-4.15581 2.38945,-4.72943 0,-0.93054 -0.69082,-1.71741 -2.46777,-2.81146 -3.335598,-2.05317 -6.850058,-4.8768 -9.578706,-7.69594 -3.995208,-4.1275 -6.337829,-7.37711 -8.717491,-12.09225 -1.032934,-2.04682 -1.40044,-2.5355 -2.139421,-2.84427 -1.069711,-0.44715 -0.604308,-0.51753 -3.290358,0.49742 m 61.251066,12.93442 c -3.69173,1.38959 -7.5094,2.11508 -11.37708,2.16138 -1.89177,0.0228 -4.3045,-0.0553 -5.36178,-0.17357 -1.8833,-0.21061 -1.93675,-0.19976 -2.6506,0.52917 -0.51064,0.52123 -0.88,1.36128 -1.23401,2.8059 -0.62574,2.55456 -0.43683,3.28137 1.04563,4.02326 0.96282,0.48154 1.58777,0.52864 7.01014,0.52916 6.7392,2.7e-4 8.33569,-0.22886 13.82686,-1.98411 3.6449,-1.16549 4.9567,-1.90394 5.34537,-3.0091 0.22172,-0.63024 0.12118,-1.00859 -0.65802,-2.4765 -1.22872,-2.31537 -2.12169,-3.25147 -3.07604,-3.22395 -0.4146,0.0116 -1.7063,0.37994 -2.87047,0.81836 m 20.24066,37.14004 c -10.29785,4.7879 -20.84546,7.08369 -32.54375,7.08369 -5.69119,0 -8.13065,-0.20744 -13.67393,-1.16311 -3.02472,-0.52123 -3.85763,-0.45614 -4.53046,0.35454 -0.39185,0.47202 -1.35996,4.01532 -1.36843,5.00856 -0.0111,1.24645 0.97658,2.05873 3.02419,2.48788 9.55437,2.0029 24.47528,1.92326 34.1929,-0.18203 6.5569,-1.42055 13.37707,-3.75232 19.29236,-6.5958 3.803385,-1.82827 4.025905,-2.53392 1.911885,-6.06346 -1.04775,-1.74916 -1.852355,-2.42781 -2.811475,-2.37146 -0.24791,0.0148 -1.8198,0.66331 -3.49329,1.44119"
       stroke="none"
       fill="#fffcfc"
       fill-rule="evenodd"
       id="path9252"
       style="display:inline;fill:#3c3325;fill-opacity:1;stroke-width:0.264583"
       sodipodi:nodetypes="csccccccccccccccccccccsccccccccscccccsccccsccccccsscccccscccccscccccsccccccccccccccssccscccscssccccccccccscsccccccccccccccccccsccccssccc" /></g></svg>
